<?xml version="1.0" encoding="UTF-8"?>
<svg id="Layer_1" xmlns="http://www.w3.org/2000/svg" width="1538.1" height="332" version="1.1" viewBox="0 0 1538.1 332"><link xmlns="" type="text/css" id="dark-mode" rel="stylesheet" href=""/><style xmlns="" type="text/css" id="dark-mode-custom-style"/>
  <!-- Generator: Adobe Illustrator 29.0.0, SVG Export Plug-In . SVG Version: 2.1.0 Build 186)  -->
  <defs>
    <style>
      .st0 {
        fill: #c1c1c1;
      }

      .st1 {
        fill: #fff;
      }
    </style>
  </defs>
  <path class="st1" d="M425.8,84.6h123.8v19.5h-123.8v-19.5ZM476.5,101.7h22.5v111.9h-22.5v-111.9Z"/>
  <path class="st1" d="M628.5,216c-15.1,0-28.3-2.7-39.5-8.2-11.2-5.4-19.9-13.1-26.1-23.1-6.2-10-9.3-21.8-9.3-35.6s3.1-25.7,9.3-35.7c6.2-10,14.9-17.7,26.1-23.1,11.2-5.4,24.4-8.1,39.5-8.1s28.5,2.7,39.6,8.1c11.1,5.4,19.8,13.1,26,23.1,6.2,10,9.3,21.9,9.3,35.7s-3.1,25.7-9.3,35.6c-6.2,10-14.8,17.7-26,23.1-11.1,5.4-24.4,8.2-39.6,8.2ZM628.5,196.1c10.1,0,19-1.7,26.7-5.2,7.7-3.5,13.8-8.7,18.2-15.6,4.4-7,6.7-15.7,6.7-26.2s-2.2-19-6.7-26c-4.4-7-10.5-12.2-18.2-15.7-7.7-3.5-16.6-5.3-26.7-5.3s-18.8,1.8-26.7,5.3c-7.8,3.5-14,8.8-18.5,15.7-4.5,7-6.8,15.6-6.8,26s2.3,19.2,6.8,26.2c4.5,7,10.7,12.2,18.5,15.6,7.8,3.5,16.7,5.2,26.7,5.2Z"/>
  <path class="st1" d="M748.3,170.4v-18.9h52.2c7.3,0,13.2-2.1,17.6-6.4,4.4-4.2,6.7-10,6.7-17.1s-2.2-13.2-6.7-17.4c-4.4-4.2-10.3-6.3-17.6-6.3h-49v109.3h-22.7V84.6h70.1c6.8,0,13.1.9,18.9,2.7,5.8,1.8,11,4.5,15.4,8.1,4.4,3.6,7.9,8.1,10.4,13.4,2.5,5.4,3.7,11.8,3.7,19.2s-1.2,13.6-3.7,19c-2.5,5.4-5.9,9.8-10.4,13.2-4.4,3.5-9.6,6-15.4,7.7-5.8,1.7-12.1,2.5-18.9,2.5h-50.6Z"/>
  <path class="st0" d="M934.1,84.6c13.9,0,25.6,1.7,35,5.2,9.4,3.5,16.9,8.1,22.5,14,5.6,5.9,9.6,12.7,12,20.4,2.5,7.7,3.7,15.8,3.7,24.3s-1.3,16.9-4,24.7c-2.7,7.8-6.9,14.8-12.6,20.8-5.8,6-13.3,10.8-22.6,14.3-9.3,3.5-20.6,5.3-34,5.3h-61.9V84.6h61.9ZM894.8,193.7h39c9.8,0,18-1.3,24.5-3.8,6.5-2.5,11.7-5.9,15.5-10.3,3.8-4.3,6.6-9.2,8.2-14.5,1.6-5.4,2.4-10.9,2.4-16.6s-.8-11.2-2.4-16.4c-1.6-5.2-4.3-10-8.2-14.1-3.9-4.2-9-7.5-15.5-10-6.5-2.5-14.7-3.7-24.5-3.7h-39v89.4Z"/>
  <path class="st0" d="M1033,213.6V84.6h76.3c9.6,0,17.9,1.4,24.9,4.1,7,2.7,12.5,6.9,16.3,12.5,3.8,5.6,5.8,12.8,5.8,21.6s-1,10.9-3,15c-2,4.2-4.8,7.6-8.4,10.3-3.6,2.7-7.7,4.7-12.4,6.2-4.7,1.5-9.7,2.4-15,2.8l-2-1.4c8.5.1,15.5.9,21.1,2.3,5.6,1.4,9.8,4,12.7,7.8,2.9,3.8,4.4,9.3,4.4,16.6v31.3h-22.5v-30.1c0-5-.9-9-2.7-11.8-1.8-2.9-4.8-4.8-9.2-6-4.3-1.1-10.5-1.7-18.4-1.7h-45.2v49.6h-22.7ZM1055.7,145.5h53.6c8,0,14-2,18.1-6,4.1-4,6.2-9.2,6.2-15.7s-2.1-11-6.2-14.4c-4.1-3.4-10.2-5.1-18.1-5.1h-53.6v41.2Z"/>
  <path class="st0" d="M1187.7,84.6h22.7v129h-22.7V84.6Z"/>
  <path class="st0" d="M1287.3,213.6l-53.6-129h24.7l46,115.3h-7.4l45.8-115.3h24.3l-53,129h-26.9Z"/>
  <path class="st0" d="M1409.3,158.7v35.4h90.6v19.5h-113.3V84.6h113.1v19.5h-90.4v35.8h74.1v18.7h-74.1Z"/>
  <polygon class="st1" points="167.5 79.9 62.9 79.9 48.4 50.7 38.2 30.7 316.2 30.7 372.3 110.2 340.8 194 150.9 301.3 164.9 263.5 214 130.1 224.7 101.2 272.2 101.2 243.4 181.9 219.4 215.3 297.8 166 316.2 117 286.3 79.4 192.3 79.4 143.1 221.1 77.6 262.7 136.6 93.5 167.5 79.9"/>
</svg>