<?xml version="1.0" encoding="UTF-8"?>
<svg id="Layer_1" xmlns="http://www.w3.org/2000/svg" width="1538.1" height="332" version="1.1" viewBox="0 0 1538.1 332"><link xmlns="" type="text/css" id="dark-mode" rel="stylesheet" href=""/><style xmlns="" type="text/css" id="dark-mode-custom-style"/>
  <!-- Generator: Adobe Illustrator 29.0.0, SVG Export Plug-In . SVG Version: 2.1.0 Build 186)  -->
  <defs>
    <style>
      .st0 {
        fill: #ff3c00;
      }

      .st1 {
        fill: #fff;
      }
    </style>
  </defs>
  <path class="st0" d="M407.8,82.2h129.2v20.4h-129.2v-20.4ZM460.7,100.1h23.5v116.8h-23.5v-116.8Z"/>
  <path class="st0" d="M619.3,219.4c-15.8,0-29.5-2.8-41.2-8.5-11.7-5.7-20.8-13.7-27.2-24.1-6.4-10.4-9.7-22.8-9.7-37.2s3.2-26.8,9.7-37.3c6.4-10.5,15.5-18.5,27.2-24.1,11.7-5.6,25.5-8.4,41.2-8.4s29.7,2.8,41.3,8.4c11.6,5.6,20.7,13.6,27.1,24.1,6.4,10.5,9.7,22.9,9.7,37.3s-3.2,26.8-9.7,37.2c-6.4,10.4-15.5,18.4-27.1,24.1-11.6,5.7-25.4,8.5-41.3,8.5ZM619.3,198.6c10.5,0,19.8-1.8,27.8-5.4,8-3.6,14.4-9,19-16.3,4.6-7.3,7-16.4,7-27.3s-2.3-19.8-7-27.1c-4.6-7.3-11-12.7-19-16.4-8-3.7-17.3-5.5-27.8-5.5s-19.7,1.8-27.8,5.5c-8.2,3.7-14.6,9.1-19.3,16.4-4.7,7.3-7.1,16.3-7.1,27.1s2.4,20.1,7.1,27.3c4.7,7.3,11.1,12.7,19.3,16.3,8.2,3.6,17.5,5.4,27.8,5.4Z"/>
  <path class="st0" d="M744.4,171.8v-19.7h54.4c7.6,0,13.7-2.2,18.4-6.6,4.6-4.4,7-10.4,7-17.9s-2.3-13.8-7-18.2c-4.6-4.4-10.8-6.5-18.4-6.5h-51.1v114.1h-23.7V82.2h73.1c7.1,0,13.6.9,19.7,2.8,6.1,1.9,11.5,4.7,16.1,8.4,4.6,3.7,8.2,8.4,10.8,14,2.6,5.6,3.8,12.3,3.8,20s-1.3,14.2-3.8,19.8c-2.6,5.6-6.2,10.2-10.8,13.8-4.6,3.6-10,6.3-16.1,8-6.1,1.7-12.7,2.6-19.7,2.6h-52.8Z"/>
  <path class="st1" d="M938.2,82.2c14.5,0,26.7,1.8,36.6,5.4,9.8,3.6,17.7,8.5,23.5,14.6,5.8,6.2,10,13.3,12.6,21.3,2.6,8,3.8,16.5,3.8,25.3s-1.4,17.6-4.2,25.8c-2.8,8.2-7.2,15.4-13.2,21.7-6,6.3-13.9,11.3-23.6,15-9.7,3.7-21.5,5.5-35.5,5.5h-64.6V82.2h64.6ZM897.3,196.1h40.7c10.2,0,18.8-1.3,25.6-3.9,6.8-2.6,12.2-6.2,16.2-10.7,4-4.5,6.9-9.6,8.5-15.2,1.7-5.6,2.5-11.4,2.5-17.3s-.8-11.7-2.5-17.1c-1.7-5.5-4.5-10.4-8.5-14.8-4-4.4-9.4-7.8-16.2-10.4-6.8-2.6-15.3-3.8-25.6-3.8h-40.7v93.3Z"/>
  <path class="st1" d="M1041.5,216.9V82.2h79.6c10,0,18.6,1.4,26,4.3,7.3,2.8,13,7.2,17,13.1,4,5.9,6,13.4,6,22.5s-1,11.3-3.1,15.7c-2.1,4.4-5,7.9-8.7,10.7-3.7,2.8-8.1,4.9-13,6.4-4.9,1.5-10.1,2.5-15.7,2.9l-2.1-1.5c8.9.1,16.2.9,22,2.4,5.8,1.5,10.2,4.2,13.3,8.1,3,3.9,4.6,9.7,4.6,17.3v32.6h-23.5v-31.4c0-5.3-.9-9.4-2.8-12.4-1.9-3-5.1-5.1-9.6-6.2-4.5-1.2-10.9-1.8-19.2-1.8h-47.2v51.7h-23.7ZM1065.2,145.8h55.9c8.3,0,14.6-2.1,18.9-6.2,4.3-4.2,6.4-9.6,6.4-16.4s-2.1-11.5-6.4-15.1c-4.3-3.5-10.6-5.3-18.9-5.3h-55.9v43Z"/>
  <path class="st1" d="M1202.9,82.2h23.7v134.6h-23.7V82.2Z"/>
  <path class="st1" d="M1306.8,216.9l-55.9-134.6h25.8l48,120.3h-7.7l47.8-120.3h25.3l-55.3,134.6h-28Z"/>
  <path class="st1" d="M1434.2,159.5v37h94.5v20.4h-118.2V82.2h118v20.4h-94.3v37.4h77.3v19.5h-77.3Z"/>
  <polyline class="st0" points="138.2 77.3 29 77.3 13.9 46.8 3.3 25.9 293.4 25.9 351.9 108.9 319.1 196.4 120.9 308.4 135.5 268.9 186.8 129.7 197.9 99.5 247.5 99.5 217.4 183.7 192.4 218.6 274.2 167.1 293.4 116 262.2 76.8 164.1 76.8 112.7 224.6 44.4 268.1 106 91.5"/>
</svg>